<?xml version="1.0" standalone="no"?>
<!DOCTYPE svg PUBLIC "-//W3C//DTD SVG 20010904//EN"
 "http://www.w3.org/TR/2001/REC-SVG-20010904/DTD/svg10.dtd">
<svg version="1.0" xmlns="http://www.w3.org/2000/svg"
 width="128.000000pt" height="128.000000pt" viewBox="0 0 128.000000 128.000000"
 preserveAspectRatio="xMidYMid meet">
<metadata>
Created by potrace 1.11, written by Peter Selinger 2001-2013
</metadata>
<g transform="translate(0.000000,128.000000) scale(0.100000,-0.100000)"
fill="#000000" stroke="none">
<path d="M19 1248 c-17 -44 -18 -86 -2 -92 7 -3 13 -1 13 4 0 6 7 10 16 10 8
0 13 -4 10 -8 -2 -4 3 -26 13 -47 15 -35 16 -41 3 -51 -19 -14 -22 -92 -6
-154 7 -26 32 -89 56 -139 l44 -93 -21 -61 c-11 -34 -24 -67 -28 -74 -4 -6
-19 -42 -33 -79 -14 -37 -35 -78 -47 -90 -26 -27 -27 -34 -33 -227 l-5 -147
641 0 640 0 -2 567 -3 567 -41 30 c-106 80 -101 74 -82 89 10 8 15 17 11 20
-3 4 -259 7 -569 7 l-562 0 -13 -32z m1227 -334 c18 -14 18 -14 -6 -3 -31 14
-36 19 -24 19 6 0 19 -7 30 -16z"/>
</g>
</svg>
